<svg width="100" height="115" viewBox="0 0 100 115" fill="none" xmlns="http://www.w3.org/2000/svg">
<path d="M42.6823 1.89929C46.894 -0.613855 52.17 -0.633885 56.403 1.84477L93.4797 23.554C97.5223 25.9213 99.9997 30.213 100 34.8465V81.8889C100 86.7402 97.2873 91.1994 92.9427 93.4825L56.276 112.748C52.3543 114.809 47.6457 114.809 43.724 112.748L7.0573 93.4825C2.7128 91.1994 0 86.7402 0 81.8889V34.7759C0 30.1812 2.43708 25.9185 6.42577 23.5379L42.6823 1.89929ZM54.72 8.60864C51.5453 6.75012 47.589 6.76549 44.4303 8.65034L9.82097 29.3044C7.1835 30.8789 7.27067 34.6797 9.9772 36.1355L45.2117 55.077C48.1967 56.6813 51.8067 56.6816 54.7917 55.077L58.6297 53.0116C63.158 51.6806 66.2513 54.4087 66.6277 57.4055L66.6667 58.0212V81.7671C66.6677 85.2978 70.329 87.6821 73.6263 86.2985L80.293 83.1084C82.136 82.335 83.3323 80.5504 83.3333 78.5766V43.6309C83.3333 41.2276 84.6653 39.0154 86.8067 37.8643L89.9643 36.1677C92.6833 34.7046 92.754 30.8807 90.091 29.3204L54.72 8.60864Z" fill="url(#paint0_linear_50_1794)"/>
<defs>
<linearGradient id="paint0_linear_50_1794" x1="27.7763" y1="11.4952" x2="78.5702" y2="101.372" gradientUnits="userSpaceOnUse">
<stop stop-color="#F5709A"/>
<stop offset="1" stop-color="#F24079"/>
</linearGradient>
</defs>
</svg>
