<svg width="142" height="48" viewBox="0 0 142 48" fill="none" xmlns="http://www.w3.org/2000/svg">
<path d="M17.9254 0.797649C19.6942 -0.257802 21.91 -0.266214 23.6877 0.774751L39.2589 9.892C40.9567 10.8862 41.9971 12.6886 41.9972 14.6346V34.3911C41.9972 36.4285 40.858 38.3012 39.0333 39.2601L23.6344 47.3511C21.9874 48.2164 20.0099 48.2164 18.3629 47.3511L2.96387 39.2601C1.1393 38.3012 0 36.4285 0 34.3911V14.6049C0 12.6753 1.02351 10.885 2.69864 9.88527L17.9254 0.797649ZM22.9809 3.61539C21.6476 2.83486 19.9861 2.84132 18.6595 3.6329L4.12453 12.307C3.01687 12.9683 3.05348 14.5645 4.19015 15.1759L18.9876 23.1308C20.2413 23.8046 21.7574 23.8047 23.011 23.1308L24.6228 22.2634C26.5246 21.7044 27.8237 22.8501 27.9818 24.1087L27.9981 24.3673V34.3399C27.9986 35.8227 29.5362 36.824 30.921 36.243L33.7208 34.9032C34.4948 34.5784 34.9973 33.8289 34.9977 33V18.3238C34.9977 17.3144 35.5571 16.3854 36.4564 15.9019L37.7825 15.1894C38.9244 14.575 38.9541 12.969 37.8357 12.3138L22.9809 3.61539Z" fill="url(#paint0_linear_25_167)"/>
<path d="M63.8672 33H58.8872V13.14H50.9972V8.70005H71.7572V13.14H63.8672V33Z" fill="#4F5159"/>
<path d="M80.1525 33.36C78.1925 33.36 76.4825 32.98 75.0225 32.22C73.5825 31.44 72.4625 30.35 71.6625 28.95C70.8625 27.55 70.4625 25.89 70.4625 23.97C70.4625 22.07 70.8525 20.42 71.6325 19.02C72.4325 17.62 73.5625 16.54 75.0225 15.78C76.4825 15.02 78.2025 14.64 80.1825 14.64C82.1425 14.64 83.8425 15.02 85.2825 15.78C86.7225 16.54 87.8325 17.62 88.6125 19.02C89.3925 20.42 89.7825 22.08 89.7825 24C89.7825 25.9 89.3925 27.56 88.6125 28.98C87.8325 30.38 86.7125 31.46 85.2525 32.22C83.8125 32.98 82.1125 33.36 80.1525 33.36ZM80.1525 29.04C81.6525 29.04 82.8025 28.59 83.6025 27.69C84.4025 26.77 84.8025 25.53 84.8025 23.97C84.8025 22.41 84.4025 21.19 83.6025 20.31C82.8025 19.41 81.6525 18.96 80.1525 18.96C78.6325 18.96 77.4625 19.41 76.6425 20.31C75.8425 21.19 75.4425 22.41 75.4425 23.97C75.4425 25.53 75.8425 26.77 76.6425 27.69C77.4625 28.59 78.6325 29.04 80.1525 29.04Z" fill="#4F5159"/>
<path d="M101.457 33.36C99.4972 33.36 97.7872 32.98 96.3272 32.22C94.8872 31.44 93.7672 30.35 92.9672 28.95C92.1672 27.55 91.7672 25.89 91.7672 23.97C91.7672 22.07 92.1572 20.42 92.9372 19.02C93.7372 17.62 94.8672 16.54 96.3272 15.78C97.7872 15.02 99.5072 14.64 101.487 14.64C103.447 14.64 105.147 15.02 106.587 15.78C108.027 16.54 109.137 17.62 109.917 19.02C110.697 20.42 111.087 22.08 111.087 24C111.087 25.9 110.697 27.56 109.917 28.98C109.137 30.38 108.017 31.46 106.557 32.22C105.117 32.98 103.417 33.36 101.457 33.36ZM101.457 29.04C102.957 29.04 104.107 28.59 104.907 27.69C105.707 26.77 106.107 25.53 106.107 23.97C106.107 22.41 105.707 21.19 104.907 20.31C104.107 19.41 102.957 18.96 101.457 18.96C99.9372 18.96 98.7672 19.41 97.9472 20.31C97.1472 21.19 96.7472 22.41 96.7472 23.97C96.7472 25.53 97.1472 26.77 97.9472 27.69C98.7672 28.59 99.9372 29.04 101.457 29.04Z" fill="#4F5159"/>
<path d="M114.152 33V7.80005H119.132V33H114.152Z" fill="#4F5159"/>
<path d="M123.767 40.2V36.21H127.727L129.137 32.85L121.367 15H126.647L131.687 27.12H131.807L136.727 15H141.827L134.117 33L132.647 36.48C132.147 37.66 131.567 38.57 130.907 39.21C130.247 39.87 129.237 40.2 127.877 40.2H123.767Z" fill="#4F5159"/>
<defs>
<linearGradient id="paint0_linear_25_167" x1="11.6653" y1="4.82766" x2="32.9973" y2="42.5734" gradientUnits="userSpaceOnUse">
<stop stop-color="#F5709A"/>
<stop offset="1" stop-color="#F24079"/>
</linearGradient>
</defs>
</svg>
